# xmcd
#
# Track frame offsets: 
#        150
#        17811
#        30733
#        52427
#        67864
#        82364
#        97478
#        120924
#        136528
#        140091
#        158222
#        170278
#        187045
#
# Disc length: 2743 seconds
#
# Revision: 2
# Processed by: cddbd v1.5.2PL0 Copyright (c) Steve Scherf et al.
# Submitted via: ExactAudioCopyFreeDBPlugin 1.0
#
DISCID=bb0ab50d
DTITLE=Infamous Stringdusters - Things That Fly
DYEAR=2010
DGENRE=Bluegrass
TTITLE0=You Can't Stop the Changes
TTITLE1=In God's Country
TTITLE2=All the Same
TTITLE3=Magic #9
TTITLE4=Those Who've Gone On
TTITLE5=It'll Be Alright
TTITLE6=Masquerade
TTITLE7=Taking a Chance on the Truth
TTITLE8=Toy Rockets
TTITLE9=Love One Another
TTITLE10=17 Cents
TTITLE11=Not Tonight
TTITLE12=The Deputy
EXTD=YEAR: 2010
EXTT0=
EXTT1=
EXTT2=
EXTT3=
EXTT4=
EXTT5=
EXTT6=
EXTT7=
EXTT8=
EXTT9=
EXTT10=
EXTT11=
EXTT12=
PLAYORDER=
